#Comment line ignore any data following # character 
#Hierarchical Translation and Rotation (.htr) file 
[Header]	
#Header keywords are followed by a single value 
FileType HTR		#Single word string
DataType HTRS		#Translation followed by rotation and scale data
FileVersion 1		#integer
NumSegments 64		#integer
NumFrames 3		#integer
DataFrameRate 30		#integer, data frame rate in this file
EulerRotationOrder ZYX
CalibrationUnits mm
RotationUnits Degrees
GlobalAxisofGravity Y
BoneLengthAxis Y
ScaleFactor 1.00
[SegmentNames&Hierarchy]
#CHILD	PARENT
Pinger_Root GLOBAL
Pelvis Pinger_Root
L_Hip Pelvis
R_Hip Pelvis
Rear_Leg01 Pelvis
Spine1 Pelvis
L_Leg01 L_Hip
L_Leg02 L_Leg01
L_Leg03 L_Leg02
L_Foot L_Leg03
L_Toe1_01 L_Foot
L_Toe2_01 L_Foot
L_Toe3_01 L_Foot
planeAlignerLeft L_Foot
L_Toe1_02 L_Toe1_01
L_Toe1_03 L_Toe1_02
L_Toe2_02 L_Toe2_01
L_Toe2_03 L_Toe2_02
L_Toe3_02 L_Toe3_01
L_Toe3_03 L_Toe3_02
planeLockWeightLeft planeAlignerLeft
R_Leg01 R_Hip
R_Leg02 R_Leg01
R_Leg03 R_Leg02
R_Foot R_Leg03
planeAlignerRight R_Foot
R_Toe1_01 R_Foot
R_Toe2_01 R_Foot
R_Toe3_01 R_Foot
planeLockWeightRight planeAlignerRight
R_Toe1_02 R_Toe1_01
R_Toe1_03 R_Toe1_02
R_Toe2_02 R_Toe2_01
R_Toe2_03 R_Toe2_02
R_Toe3_02 R_Toe3_01
R_Toe3_03 R_Toe3_02
Rear_Leg02 Rear_Leg01
Rear_Leg03 Rear_Leg02
Rear_Leg04 Rear_Leg03
Rear_Foot Rear_Leg04
planeAlignerCenter Rear_Foot
Rear_Toe1_01 Rear_Foot
Rear_Toe2_01 Rear_Foot
Rear_Toe3_01 Rear_Foot
planeLockWeightCenter planeAlignerCenter
Rear_Toe1_02 Rear_Toe1_01
Rear_Toe1_03 Rear_Toe1_02
Rear_Toe2_02 Rear_Toe2_01
Rear_Toe2_03 Rear_Toe2_02
Rear_Toe3_02 Rear_Toe3_01
Rear_Toe3_03 Rear_Toe3_02
Back_Bone Spine1
Head Spine1
Motor_Bone Back_Bone
Ping_Mechanism Back_Bone
BN_LookIK Head
bottomMouth Head
L_Mouth01 Head
L_mouthFront Head
mouthGun Head
R_Mouth01 Head
R_mouthFront Head
TopMouth Head
weapon_bone Head
[BasePosition]
#SegmentName Tx, Ty, Tz, Rx, Ry, Rz, BoneLength
Pinger_Root 0.000000 0.000000 0.000000 -90.000000 0.000000 0.000000 10.000000 
Pelvis 0.000000 0.000000 0.000000 0.000000 0.000000 0.000000 10.000000 
L_Hip 0.000000 0.000000 0.000000 0.000000 0.000000 0.000000 10.000000 
R_Hip 0.000000 0.000000 0.000000 0.000000 0.000000 0.000000 10.000000 
Rear_Leg01 0.000000 0.000000 0.000000 0.000000 0.000000 0.000000 10.000000 
Spine1 0.000000 0.000000 0.000000 0.000000 0.000000 0.000000 10.000000 
L_Leg01 0.000000 0.000000 0.000000 0.000000 0.000000 0.000000 10.000000 
L_Leg02 0.000000 0.000000 0.000000 0.000000 0.000000 0.000000 10.000000 
L_Leg03 0.000000 0.000000 0.000000 0.000000 0.000000 0.000000 10.000000 
L_Foot 0.000000 0.000000 0.000000 0.000000 0.000000 0.000000 10.000000 
L_Toe1_01 0.000000 0.000000 0.000000 0.000000 0.000000 0.000000 10.000000 
L_Toe2_01 0.000000 0.000000 0.000000 0.000000 0.000000 0.000000 10.000000 
L_Toe3_01 0.000000 0.000000 0.000000 0.000000 0.000000 0.000000 10.000000 
planeAlignerLeft 0.000000 0.000000 0.000000 0.000000 0.000000 0.000000 10.000000 
L_Toe1_02 0.000000 0.000000 0.000000 0.000000 0.000000 0.000000 10.000000 
L_Toe1_03 0.000000 0.000000 0.000000 0.000000 0.000000 0.000000 10.000000 
L_Toe2_02 0.000000 0.000000 0.000000 0.000000 0.000000 0.000000 10.000000 
L_Toe2_03 0.000000 0.000000 0.000000 0.000000 0.000000 0.000000 10.000000 
L_Toe3_02 0.000000 0.000000 0.000000 0.000000 0.000000 0.000000 10.000000 
L_Toe3_03 0.000000 0.000000 0.000000 0.000000 0.000000 0.000000 10.000000 
planeLockWeightLeft 0.000000 0.000000 0.000000 0.000000 0.000000 0.000000 10.000000 
R_Leg01 0.000000 0.000000 0.000000 0.000000 0.000000 0.000000 10.000000 
R_Leg02 0.000000 0.000000 0.000000 0.000000 0.000000 0.000000 10.000000 
R_Leg03 0.000000 0.000000 0.000000 0.000000 0.000000 0.000000 10.000000 
R_Foot 0.000000 0.000000 0.000000 0.000000 0.000000 0.000000 10.000000 
planeAlignerRight 0.000000 0.000000 0.000000 0.000000 0.000000 0.000000 10.000000 
R_Toe1_01 0.000000 0.000000 0.000000 0.000000 0.000000 0.000000 10.000000 
R_Toe2_01 0.000000 0.000000 0.000000 0.000000 0.000000 0.000000 10.000000 
R_Toe3_01 0.000000 0.000000 0.000000 0.000000 0.000000 0.000000 10.000000 
planeLockWeightRight 0.000000 0.000000 0.000000 0.000000 0.000000 0.000000 10.000000 
R_Toe1_02 0.000000 0.000000 0.000000 0.000000 0.000000 0.000000 10.000000 
R_Toe1_03 0.000000 0.000000 0.000000 0.000000 0.000000 0.000000 10.000000 
R_Toe2_02 0.000000 0.000000 0.000000 0.000000 0.000000 0.000000 10.000000 
R_Toe2_03 0.000000 0.000000 0.000000 0.000000 0.000000 0.000000 10.000000 
R_Toe3_02 0.000000 0.000000 0.000000 0.000000 0.000000 0.000000 10.000000 
R_Toe3_03 0.000000 0.000000 0.000000 0.000000 0.000000 0.000000 10.000000 
Rear_Leg02 0.000000 0.000000 0.000000 0.000000 0.000000 0.000000 10.000000 
Rear_Leg03 0.000000 0.000000 0.000000 0.000000 0.000000 0.000000 10.000000 
Rear_Leg04 0.000000 0.000000 0.000000 0.000000 0.000000 0.000000 10.000000 
Rear_Foot 0.000000 0.000000 0.000000 0.000000 0.000000 0.000000 10.000000 
planeAlignerCenter 0.000000 0.000000 0.000000 0.000000 0.000000 0.000000 10.000000 
Rear_Toe1_01 0.000000 0.000000 0.000000 0.000000 0.000000 0.000000 10.000000 
Rear_Toe2_01 0.000000 0.000000 0.000000 0.000000 0.000000 0.000000 10.000000 
Rear_Toe3_01 0.000000 0.000000 0.000000 0.000000 0.000000 0.000000 10.000000 
planeLockWeightCenter 0.000000 0.000000 0.000000 0.000000 0.000000 0.000000 10.000000 
Rear_Toe1_02 0.000000 0.000000 0.000000 0.000000 0.000000 0.000000 10.000000 
Rear_Toe1_03 0.000000 0.000000 0.000000 0.000000 0.000000 0.000000 10.000000 
Rear_Toe2_02 0.000000 0.000000 0.000000 0.000000 0.000000 0.000000 10.000000 
Rear_Toe2_03 0.000000 0.000000 0.000000 0.000000 0.000000 0.000000 10.000000 
Rear_Toe3_02 0.000000 0.000000 0.000000 0.000000 0.000000 0.000000 10.000000 
Rear_Toe3_03 0.000000 0.000000 0.000000 0.000000 0.000000 0.000000 10.000000 
Back_Bone 0.000000 0.000000 0.000000 0.000000 0.000000 0.000000 10.000000 
Head 0.000000 0.000000 0.000000 0.000000 0.000000 0.000000 10.000000 
Motor_Bone 0.000000 0.000000 0.000000 0.000000 0.000000 0.000000 10.000000 
Ping_Mechanism 0.000000 0.000000 0.000000 0.000000 0.000000 0.000000 10.000000 
BN_LookIK 0.000000 0.000000 0.000000 0.000000 0.000000 0.000000 10.000000 
bottomMouth 0.000000 0.000000 0.000000 0.000000 0.000000 0.000000 10.000000 
L_Mouth01 0.000000 0.000000 0.000000 0.000000 0.000000 0.000000 10.000000 
L_mouthFront 0.000000 0.000000 0.000000 0.000000 0.000000 0.000000 10.000000 
mouthGun 0.000000 0.000000 0.000000 0.000000 0.000000 0.000000 10.000000 
R_Mouth01 0.000000 0.000000 0.000000 0.000000 0.000000 0.000000 10.000000 
R_mouthFront 0.000000 0.000000 0.000000 0.000000 0.000000 0.000000 10.000000 
TopMouth 0.000000 0.000000 0.000000 0.000000 0.000000 0.000000 10.000000 
weapon_bone 0.000000 0.000000 0.000000 0.000000 0.000000 0.000000 10.000000 
#Beginning of Data. Separated by tabs
#Fr	Tx	Ty	Tz	Rx	Ry	Rz	SF
[Pinger_Root]
36 0.000000 0.000000 0.000000 -0.000064 0.000042 66.235939 0.000000
37 0.000000 0.000000 0.000000 -0.000063 0.000043 68.896652 0.000000
38 0.000000 0.000000 0.000000 -0.000062 0.000044 71.547318 0.000000
[Pelvis]
36 -78.107468 149.486084 4375.956543 -100.493195 -83.410751 126.653099 4379.205566
37 -21.390736 152.447372 4356.405762 -87.633934 -83.089119 110.961037 4359.124512
38 46.701206 160.881699 4333.873047 -80.655655 -82.769257 101.042435 4337.109863
[L_Hip]
36 5.766392 125.831482 872.656799 160.158691 -45.484905 122.312202 881.701050
37 5.766392 125.831482 872.656799 160.158691 -45.484905 122.312202 881.701050
38 5.766392 125.831482 872.656799 160.158691 -45.484894 122.312202 881.701050
[R_Hip]
36 5.765438 125.836372 -872.654907 38.087841 49.812687 125.703735 881.699829
37 5.765438 125.836372 -872.654907 38.087841 49.812687 125.703735 881.699829
38 5.765438 125.836372 -872.654907 38.087841 49.812687 125.703735 881.699829
[Rear_Leg01]
36 -192.298416 -925.602966 -0.001907 178.094574 -3.044265 -154.755630 945.367432
37 -192.298416 -925.602966 -0.001907 178.385422 -2.141188 -153.233215 945.367432
38 -192.298416 -925.602966 -0.001907 178.238907 -1.901080 -151.716980 945.367432
[Spine1]
36 290.604584 5.007505 0.000477 -9.454317 4.955027 17.556973 290.647736
37 290.604584 5.007505 0.000477 -8.989320 3.344281 17.000883 290.647736
38 290.604584 5.007505 0.000477 -8.260457 2.251503 16.672644 290.647736
[L_Leg01]
36 761.932007 -0.002384 -0.069261 12.653713 -34.538914 8.278543 761.932068
37 761.932007 -0.002384 -0.069261 10.664872 -34.922417 9.621021 761.932068
38 761.932007 -0.002384 -0.069261 9.054743 -34.868149 11.873740 761.932068
[L_Leg02]
36 1441.140503 -0.000954 -0.000715 -0.156524 0.111333 -119.979149 1441.140503
37 1441.140503 -0.000954 -0.000715 -0.377888 0.183066 -119.744926 1441.140503
38 1441.140503 -0.000954 -0.000715 -0.484414 0.235546 -120.412918 1441.140503
[L_Leg03]
36 1686.963989 -0.000715 -0.000954 0.022719 -0.006349 104.174934 1686.963989
37 1686.963989 -0.000715 -0.000954 0.026272 -0.006446 102.717422 1686.963989
38 1686.963989 -0.000715 -0.000954 0.036476 -0.010544 101.003822 1686.963989
[L_Foot]
36 3041.570068 -30.715107 11.297464 -17.474253 12.700229 45.305210 3041.746094
37 3041.570068 -30.715107 11.297464 -18.196667 12.691971 45.593403 3041.746094
38 3041.570068 -30.715107 11.297464 -18.919102 12.687259 45.881680 3041.746094
[L_Toe1_01]
36 -188.216690 -224.732346 -21.137953 68.952751 0.684727 -173.157089 293.899567
37 -188.216690 -224.732346 -21.137953 68.952751 0.684727 -173.157089 293.899567
38 -188.216690 -224.732346 -21.137953 68.952751 0.684727 -173.157089 293.899567
[L_Toe2_01]
36 200.746536 -219.926590 148.838394 -76.475250 -0.519429 -57.610146 332.896027
37 200.746536 -219.926590 148.838394 -76.475250 -0.519429 -57.610146 332.896027
38 200.746536 -219.926590 148.838394 -76.475250 -0.519431 -57.610146 332.896027
[L_Toe3_01]
36 188.832520 -219.859131 -191.078659 -86.331184 43.217804 -55.058392 347.140900
37 188.832520 -219.859131 -191.078659 -86.331184 43.217808 -55.058392 347.140900
38 188.832520 -219.859131 -191.078659 -86.331184 43.217793 -55.058380 347.140900
[planeAlignerLeft]
36 32.799927 -556.416260 -148.138580 -10.756040 -78.700539 -89.967339 576.732117
37 32.798828 -556.416321 -148.138885 -10.756040 -78.700539 -89.967339 576.732178
38 32.797729 -556.416321 -148.139191 -10.756040 -78.700539 -89.967339 576.732178
[L_Toe1_02]
36 413.761139 0.000477 0.000000 0.001384 -25.965561 0.001384 413.761139
37 413.761139 0.000477 0.000000 0.001384 -25.967813 0.001384 413.761139
38 413.761139 0.000477 0.000000 0.001384 -25.970079 0.001384 413.761139
[L_Toe1_03]
36 464.317322 0.000358 -0.000089 0.004012 55.981392 0.004012 464.317322
37 464.317322 0.000358 -0.000089 0.004012 55.981388 0.004012 464.317322
38 464.317322 0.000358 -0.000089 0.004012 55.981388 0.004012 464.317322
[L_Toe2_02]
36 342.235809 -0.000477 0.000238 0.001188 -72.365227 0.001188 342.235809
37 342.235809 -0.000477 0.000238 0.001188 -72.365227 0.001188 342.235809
38 342.235809 -0.000477 0.000238 0.001188 -72.365257 0.001188 342.235809
[L_Toe2_03]
36 420.210846 -0.000715 0.000000 0.028469 85.274612 0.028469 420.210846
37 420.210846 -0.000715 0.000000 0.028469 85.274612 0.028469 420.210846
38 420.210846 -0.000715 0.000000 0.028469 85.274651 0.028469 420.210846
[L_Toe3_02]
36 329.270111 0.000954 0.000000 0.001177 -81.534042 0.001177 329.270111
37 329.270111 0.000954 0.000000 0.001177 -81.523163 0.001177 329.270111
38 329.270111 0.000954 0.000000 0.001177 -81.512260 0.001177 329.270111
[L_Toe3_03]
36 439.137451 -0.001907 0.000954 -179.997559 74.280647 -179.994034 439.137451
37 439.137451 -0.001907 0.000954 -179.997559 74.280632 -179.994034 439.137451
38 439.137451 -0.001907 0.000954 -179.997559 74.280632 -179.994034 439.137451
[planeLockWeightLeft]
36 1000.000000 0.098135 0.076109 -0.011826 -0.004376 0.005620 1000.000000
37 1000.000000 0.098126 0.076110 -0.011826 -0.004376 0.005620 1000.000000
38 1000.000000 0.098118 0.076112 -0.011826 -0.004376 0.005620 1000.000000
[R_Leg01]
36 761.455627 -0.001907 -0.000358 134.557465 -17.280315 19.005468 761.455688
37 761.455627 -0.001907 -0.000358 135.266190 -19.705940 15.567956 761.455688
38 761.455627 -0.001907 -0.000358 134.513641 -20.212122 15.804336 761.455688
[R_Leg02]
36 1441.140625 0.000000 -0.000238 -1.615807 -0.258227 -132.923035 1441.140625
37 1441.140625 0.000000 -0.000238 -1.401714 -0.200444 -135.262039 1441.140625
38 1441.140625 0.000000 -0.000238 -1.168719 -0.130690 -132.512115 1441.140625
[R_Leg03]
36 1686.963989 0.000954 0.001431 0.074030 -0.038501 130.510910 1686.963989
37 1686.963989 0.000954 0.001431 0.068021 -0.035047 128.758408 1686.963989
38 1686.963989 0.000954 0.001431 0.061909 -0.031780 127.005898 1686.963989
[R_Foot]
36 3041.560059 -30.531288 -11.204481 -0.047839 -2.234067 51.727043 3041.734131
37 3041.560059 -30.531288 -11.204481 -0.442217 -2.620559 52.539127 3041.734131
38 3041.560059 -30.531288 -11.204481 -0.896168 -4.945910 52.094036 3041.734131
[planeAlignerRight]
36 -11.922065 -795.602966 -337.814362 25.940304 -69.662422 -123.914970 864.433167
37 -15.708894 -729.179382 -337.779510 24.385593 -70.003555 -122.455322 803.768860
38 -25.988079 -605.885010 -337.187653 19.881887 -70.874947 -118.217873 693.878601
[R_Toe1_01]
36 -188.383347 -224.864899 21.052242 85.637276 22.266575 -153.381393 294.101532
37 -188.383347 -224.864899 21.052242 83.446213 21.854279 -158.990128 294.101532
38 -188.383347 -224.864899 21.052242 79.853676 20.059891 -168.768478 294.101532
[R_Toe2_01]
36 200.637817 -220.002121 -148.787384 -73.009315 14.550736 -55.530281 332.857574
37 200.637817 -220.002121 -148.787384 -73.627968 16.261641 -55.635899 332.857574
38 200.637817 -220.002121 -148.787384 -74.227867 18.980543 -51.827213 332.857574
[R_Toe3_01]
36 188.606735 -220.092957 191.126343 -52.505703 -12.149632 -86.083504 347.192566
37 188.606735 -220.092957 191.126343 -52.510010 -12.051085 -86.106735 347.192566
38 188.606735 -220.092957 191.126343 -53.939365 -14.605545 -81.801773 347.192566
[planeLockWeightRight]
36 999.998657 0.000000 0.075941 -0.011823 -0.004379 -0.000027 999.998596
37 999.999207 0.000000 0.075932 -0.011823 -0.004379 -0.000027 999.999207
38 999.999207 0.000000 0.075923 -0.011823 -0.004379 -0.000027 999.999207
[R_Toe1_02]
36 413.762085 0.000477 -0.000119 0.001386 -25.779480 0.001386 413.762085
37 413.762085 0.000477 -0.000119 0.001384 -25.972326 0.001384 413.762085
38 413.762085 0.000477 -0.000119 0.001388 -25.412113 0.001388 413.762085
[R_Toe1_03]
36 464.317810 0.000000 0.001088 0.003234 47.444443 0.003234 464.317810
37 464.317810 0.000000 0.001088 0.003888 54.864044 0.003888 464.317810
38 464.317810 0.000000 0.001088 0.005298 64.403381 0.005298 464.317810
[R_Toe2_02]
36 342.234741 -0.000954 0.000238 0.001287 -41.488167 0.001287 342.234741
37 342.234741 -0.000954 0.000238 0.001241 -52.008739 0.001241 342.234741
38 342.234741 -0.000954 0.000238 0.001205 -63.949970 0.001205 342.234741
[R_Toe2_03]
36 420.210846 0.000715 -0.000268 -0.003244 37.169113 0.000660 420.210846
37 420.210846 0.000715 -0.000268 -0.003523 49.467167 0.000204 420.210846
38 420.210846 0.000715 -0.000268 -0.004721 67.439018 -0.001155 420.210846
[R_Toe3_02]
36 329.270355 -0.000477 -0.000954 -0.002471 -50.117981 -0.002471 329.270355
37 329.270355 -0.000477 -0.000954 -0.002400 -60.965469 -0.002400 329.270355
38 329.270355 -0.000477 -0.000954 0.001186 -73.077553 0.001186 329.270355
[R_Toe3_03]
36 439.137939 0.000238 0.001431 0.009387 44.067902 0.005590 439.137939
37 439.137939 0.000238 0.001431 0.004280 58.171268 0.004280 439.137939
38 439.137939 0.000238 0.001431 0.013413 79.960754 0.013413 439.137939
[Rear_Leg02]
36 1162.777710 -0.029802 0.005960 1.922422 -2.311585 -132.315826 1162.777710
37 1162.777710 -0.029802 0.005960 1.745619 -2.019966 -130.552856 1162.777710
38 1162.777710 -0.029802 0.005960 1.881834 -2.125970 -129.262665 1162.777710
[Rear_Leg03]
36 607.192505 -0.013351 -0.073195 0.010236 -0.005601 73.729500 607.192505
37 607.192505 -0.013351 -0.073195 0.010225 -0.005622 73.956680 607.192505
38 607.192505 -0.013351 -0.073195 0.010214 -0.005642 74.183853 607.192505
[Rear_Leg04]
36 995.874512 -0.020504 -0.011921 -0.045175 -0.018106 79.736015 995.874573
37 995.874512 -0.020504 -0.011921 -0.045306 -0.017776 80.571991 995.874573
38 995.874512 -0.020504 -0.011921 -0.045432 -0.017444 81.407936 995.874573
[Rear_Foot]
36 3096.176270 -0.067472 -0.041425 -157.251007 82.698730 20.862446 3096.176270
37 3096.176270 -0.067472 -0.041425 -156.070801 83.767471 21.094307 3096.176270
38 3096.176270 -0.067472 -0.041425 -153.053864 84.048302 23.358391 3096.176270
[planeAlignerCenter]
36 44.160751 -16.081541 -775.709717 12.237370 3.364003 -179.999268 777.132080
37 26.032005 -16.083677 -776.310547 12.237225 1.739237 -179.999268 776.913391
38 7.903218 -16.085815 -776.911438 12.240891 0.515760 179.998932 777.118103
[Rear_Toe1_01]
36 0.653352 83.966492 -371.173737 -4.770094 41.823673 86.245712 380.553192
37 0.653352 83.966492 -371.173737 -2.649515 41.892967 87.989059 380.553192
38 0.653352 83.966492 -371.173737 -0.525576 41.914112 89.735863 380.553192
[Rear_Toe2_01]
36 178.200760 -294.826019 -362.060547 -3.604708 32.380997 -63.333874 499.765686
37 178.200760 -294.826019 -362.060547 -5.083826 33.249779 -64.536530 499.765686
38 178.200760 -294.826019 -362.060547 -6.599419 34.091846 -65.777878 499.765686
[Rear_Toe3_01]
36 -153.359680 -308.780914 -362.060852 7.128727 35.234745 -109.405289 499.952881
37 -153.359680 -308.780914 -362.060852 5.495486 34.536114 -110.745461 499.952881
38 -153.359680 -308.780914 -362.060852 3.896101 33.806747 -112.049850 499.952881
[planeLockWeightCenter]
36 1000.000122 0.000305 0.076434 -0.011814 -0.004373 -0.000015 1000.000122
37 1000.000122 0.000305 0.076432 -0.011814 -0.004373 -0.000015 1000.000122
38 1000.000122 0.000305 0.076430 -0.011814 -0.004373 -0.000015 1000.000122
[Rear_Toe1_02]
36 379.707825 0.194073 0.000477 -0.000234 -31.564112 0.006930 379.707855
37 379.707825 0.194073 0.000477 -0.000234 -31.569483 0.006930 379.707855
38 379.707825 0.194073 0.000477 -0.000235 -31.574844 0.006930 379.707855
[Rear_Toe1_03]
36 500.129700 0.165701 0.000119 -0.000127 51.668110 0.007277 500.129761
37 500.129700 0.165701 0.000119 -0.000106 51.880474 0.007293 500.129761
38 500.129700 0.165701 0.000119 -0.000105 51.881565 0.007294 500.129761
[Rear_Toe2_02]
36 340.494507 0.000238 -0.000954 0.001194 -68.736526 0.001194 340.494507
37 340.494507 0.000238 -0.000954 0.001193 -69.342567 0.001193 340.494507
38 340.494507 0.000238 -0.000954 0.001192 -69.598579 0.001192 340.494507
[Rear_Toe2_03]
36 433.103577 0.000000 0.000238 0.006251 68.357292 0.006251 433.103546
37 433.103577 0.000000 0.000238 0.006432 68.972343 0.006432 433.103546
38 433.103577 0.000000 0.000238 0.006623 69.587341 0.006623 433.103546
[Rear_Toe3_02]
36 340.494141 -0.000358 -0.000477 0.004191 -68.259583 -0.003225 340.494171
37 340.494141 -0.000358 -0.000477 0.005608 -67.931297 -0.005354 340.494171
38 340.494141 -0.000358 -0.000477 0.006973 -67.603012 -0.007431 340.494171
[Rear_Toe3_03]
36 433.103577 0.001431 -0.000238 0.002413 67.291245 0.000629 433.103546
37 433.103577 0.001431 -0.000238 0.000656 66.731300 -0.002021 433.103546
38 433.103577 0.001431 -0.000238 -0.000997 66.171371 -0.004571 433.103546
[Back_Bone]
36 1312.175781 -701.934692 0.000954 0.000023 -0.000007 -85.606667 1488.125488
37 1312.175781 -701.934692 0.000954 0.000023 -0.000007 -85.606667 1488.125488
38 1312.175781 -701.934692 0.000954 0.000023 -0.000007 -85.606667 1488.125488
[Head]
36 1406.159424 809.709290 0.001431 0.000625 -1.475623 7.768026 1622.625488
37 1406.159424 809.709290 0.001431 0.000625 -1.475623 7.768025 1622.625488
38 1406.159424 809.709290 0.001431 0.000625 -1.475623 7.768025 1622.625488
[Motor_Bone]
36 1158.364380 -417.834747 0.000477 -0.096516 -2.540279 -105.774452 1231.419434
37 1158.364380 -417.834747 0.000477 -0.094589 -1.530302 -105.819633 1231.419434
38 1158.364380 -417.834747 0.000477 -0.093458 -0.520321 -105.864761 1231.419434
[Ping_Mechanism]
36 1243.616577 -446.428223 -11.882598 0.000103 -0.000053 82.120995 1321.371094
37 1246.175049 -447.258606 -5.581789 0.000103 -0.000053 82.120995 1324.017944
38 1248.733521 -448.088959 0.719022 0.000103 -0.000053 82.120995 1326.694946
[BN_LookIK]
36 193.241119 1380.371704 -0.002861 0.000000 89.965736 -31.038179 1393.832153
37 193.241119 1380.371704 -0.002861 0.000000 89.965736 -31.038179 1393.832153
38 193.241119 1380.371704 -0.002861 0.000000 89.965736 -31.038179 1393.832153
[bottomMouth]
36 -435.092926 615.759399 -0.000954 -0.000022 0.000016 73.527184 753.966492
37 -435.092926 615.759399 -0.000954 -0.000022 0.000016 73.527184 753.966492
38 -435.092926 615.759399 -0.000954 -0.000022 0.000016 73.527184 753.966492
[L_Mouth01]
36 554.440979 7.658243 838.222046 150.204178 23.759130 109.605339 1005.027161
37 554.440979 7.658243 838.222046 150.204178 23.759130 109.605339 1005.027161
38 554.440979 7.658243 838.222046 150.204178 23.759130 109.605339 1005.027161
[L_mouthFront]
36 551.629089 934.514771 339.150421 0.000081 2.804060 79.119301 1136.941284
37 551.629089 934.514771 339.150421 0.000081 2.804060 79.119301 1136.941284
38 551.629089 934.514771 339.150421 0.000081 2.804060 79.119301 1136.941284
[mouthGun]
36 55.332661 1627.420898 0.000000 0.000023 0.000009 -11.038128 1628.361328
37 55.332661 1627.420898 0.000000 0.000023 0.000009 -11.038128 1628.361328
38 55.332661 1627.420898 0.000000 0.000023 0.000009 -11.038128 1628.361328
[R_Mouth01]
36 554.442383 7.659197 -838.223938 29.795891 -23.759109 109.605331 1005.029541
37 554.442383 7.659197 -838.223938 29.795891 -23.759109 109.605331 1005.029541
38 554.442383 7.659197 -838.223938 29.795891 -23.759109 109.605331 1005.029541
[R_mouthFront]
36 551.629089 934.514282 -339.151367 0.000029 -2.803930 79.119133 1136.941162
37 551.629089 934.514282 -339.151367 0.000029 -2.803930 79.119133 1136.941162
38 551.629089 934.514282 -339.151367 0.000029 -2.803930 79.119133 1136.941162
[TopMouth]
36 461.269867 -56.106091 -0.008583 -0.000059 -0.000268 92.025169 464.669525
37 461.269867 -56.106091 -0.008583 -0.000059 -0.000268 92.025169 464.669525
38 461.269867 -56.106091 -0.008583 -0.000059 -0.000268 92.025169 464.669525
[weapon_bone]
36 -987.239868 1448.372803 0.001431 0.000000 89.965736 -31.038221 1752.833740
37 -987.239868 1448.372803 0.001431 0.000000 89.965736 -31.038221 1752.833740
38 -987.239868 1448.372803 0.001431 0.000000 89.965736 -31.038221 1752.833740
